<mxfile host="app.diagrams.net" modified="2024-05-21T13:06:32.537Z" agent="Mozilla/5.0 (Windows NT 10.0; Win64; x64) AppleWebKit/537.36 (KHTML, like Gecko) Chrome/124.0.0.0 Safari/537.36" etag="4RKQe-z-WpcpINtZg8CG" scale="1" border="0" version="24.4.4" type="device">
  <diagram name="Page-1" id="EO7RS46NyVbhWd4v6k-y">
    <mxGraphModel dx="2524" dy="738" grid="1" gridSize="10" guides="1" tooltips="1" connect="1" arrows="1" fold="1" page="1" pageScale="1" pageWidth="850" pageHeight="1100" math="0" shadow="0">
      <root>
        <mxCell id="0" />
        <mxCell id="1" parent="0" />
        <mxCell id="QgWmPVO1LVFjcxLuKNxT-28" value="Bitir" style="strokeWidth=2;html=1;shape=mxgraph.flowchart.start_1;whiteSpace=wrap;" parent="1" vertex="1">
          <mxGeometry x="-355" y="670" width="100" height="60" as="geometry" />
        </mxCell>
        <mxCell id="QgWmPVO1LVFjcxLuKNxT-57" value="En büyük kırmızı ve&amp;nbsp;&lt;div&gt;yeşil dubaların&lt;/div&gt;&lt;div&gt;arasındaki alanı baz al&lt;/div&gt;" style="rounded=1;whiteSpace=wrap;html=1;absoluteArcSize=1;arcSize=14;strokeWidth=2;" parent="1" vertex="1">
          <mxGeometry x="720" y="520" width="140" height="60" as="geometry" />
        </mxCell>
        <mxCell id="QgWmPVO1LVFjcxLuKNxT-81" style="edgeStyle=orthogonalEdgeStyle;rounded=0;orthogonalLoop=1;jettySize=auto;html=1;entryX=1;entryY=0.5;entryDx=0;entryDy=0;" parent="1" source="QgWmPVO1LVFjcxLuKNxT-59" target="QgWmPVO1LVFjcxLuKNxT-61" edge="1">
          <mxGeometry relative="1" as="geometry">
            <Array as="points">
              <mxPoint x="1100" y="550" />
              <mxPoint x="1100" y="810" />
            </Array>
          </mxGeometry>
        </mxCell>
        <mxCell id="QgWmPVO1LVFjcxLuKNxT-94" value="hayır" style="edgeLabel;html=1;align=center;verticalAlign=middle;resizable=0;points=[];" parent="QgWmPVO1LVFjcxLuKNxT-81" vertex="1" connectable="0">
          <mxGeometry x="0.0601" y="-1" relative="1" as="geometry">
            <mxPoint as="offset" />
          </mxGeometry>
        </mxCell>
        <mxCell id="QgWmPVO1LVFjcxLuKNxT-83" style="edgeStyle=orthogonalEdgeStyle;rounded=0;orthogonalLoop=1;jettySize=auto;html=1;entryX=0.5;entryY=0;entryDx=0;entryDy=0;" parent="1" source="QgWmPVO1LVFjcxLuKNxT-59" target="QgWmPVO1LVFjcxLuKNxT-62" edge="1">
          <mxGeometry relative="1" as="geometry" />
        </mxCell>
        <mxCell id="QgWmPVO1LVFjcxLuKNxT-93" value="evet" style="edgeLabel;html=1;align=center;verticalAlign=middle;resizable=0;points=[];" parent="QgWmPVO1LVFjcxLuKNxT-83" vertex="1" connectable="0">
          <mxGeometry x="-0.1584" relative="1" as="geometry">
            <mxPoint x="-1" as="offset" />
          </mxGeometry>
        </mxCell>
        <mxCell id="QgWmPVO1LVFjcxLuKNxT-59" value="Sarı duba&lt;div&gt;algılandı mı?&lt;/div&gt;" style="strokeWidth=2;html=1;shape=mxgraph.flowchart.decision;whiteSpace=wrap;" parent="1" vertex="1">
          <mxGeometry x="930" y="500" width="100" height="100" as="geometry" />
        </mxCell>
        <mxCell id="QgWmPVO1LVFjcxLuKNxT-61" value="Baz alınan alana doğru ilerle, yönü düzelt" style="rounded=1;whiteSpace=wrap;html=1;absoluteArcSize=1;arcSize=14;strokeWidth=2;" parent="1" vertex="1">
          <mxGeometry x="910" y="780" width="140" height="60" as="geometry" />
        </mxCell>
        <mxCell id="QgWmPVO1LVFjcxLuKNxT-62" value="Baz alınan alanı sarı dubanın olduğu noktadan ikiye böl ve geniş olan tarafa doğru ilerle, yönü düzelt" style="rounded=1;whiteSpace=wrap;html=1;absoluteArcSize=1;arcSize=14;strokeWidth=2;" parent="1" vertex="1">
          <mxGeometry x="910" y="655" width="140" height="90" as="geometry" />
        </mxCell>
        <mxCell id="QgWmPVO1LVFjcxLuKNxT-67" style="edgeStyle=orthogonalEdgeStyle;rounded=0;orthogonalLoop=1;jettySize=auto;html=1;exitX=0.5;exitY=0;exitDx=0;exitDy=0;exitPerimeter=0;entryX=0.5;entryY=1;entryDx=0;entryDy=0;" parent="1" source="QgWmPVO1LVFjcxLuKNxT-65" target="QgWmPVO1LVFjcxLuKNxT-57" edge="1">
          <mxGeometry relative="1" as="geometry">
            <Array as="points">
              <mxPoint x="790" y="600" />
              <mxPoint x="790" y="600" />
            </Array>
          </mxGeometry>
        </mxCell>
        <mxCell id="QgWmPVO1LVFjcxLuKNxT-70" value="hayır" style="edgeLabel;html=1;align=center;verticalAlign=middle;resizable=0;points=[];" parent="QgWmPVO1LVFjcxLuKNxT-67" vertex="1" connectable="0">
          <mxGeometry x="-0.1036" y="2" relative="1" as="geometry">
            <mxPoint x="2" y="2" as="offset" />
          </mxGeometry>
        </mxCell>
        <mxCell id="QgWmPVO1LVFjcxLuKNxT-69" style="edgeStyle=orthogonalEdgeStyle;rounded=0;orthogonalLoop=1;jettySize=auto;html=1;entryX=1;entryY=0.5;entryDx=0;entryDy=0;" parent="1" source="QgWmPVO1LVFjcxLuKNxT-65" target="QgWmPVO1LVFjcxLuKNxT-68" edge="1">
          <mxGeometry relative="1" as="geometry" />
        </mxCell>
        <mxCell id="QgWmPVO1LVFjcxLuKNxT-71" value="evet" style="edgeLabel;html=1;align=center;verticalAlign=middle;resizable=0;points=[];" parent="QgWmPVO1LVFjcxLuKNxT-69" vertex="1" connectable="0">
          <mxGeometry x="-0.0563" y="-1" relative="1" as="geometry">
            <mxPoint y="-7" as="offset" />
          </mxGeometry>
        </mxCell>
        <mxCell id="QgWmPVO1LVFjcxLuKNxT-65" value="Sayılar görüş&lt;div&gt;açısında mı?&lt;/div&gt;" style="strokeWidth=2;html=1;shape=mxgraph.flowchart.decision;whiteSpace=wrap;" parent="1" vertex="1">
          <mxGeometry x="740" y="650" width="100" height="100" as="geometry" />
        </mxCell>
        <mxCell id="QgWmPVO1LVFjcxLuKNxT-66" style="edgeStyle=orthogonalEdgeStyle;rounded=0;orthogonalLoop=1;jettySize=auto;html=1;exitX=0;exitY=0.5;exitDx=0;exitDy=0;entryX=1;entryY=0.5;entryDx=0;entryDy=0;entryPerimeter=0;" parent="1" source="QgWmPVO1LVFjcxLuKNxT-62" target="QgWmPVO1LVFjcxLuKNxT-65" edge="1">
          <mxGeometry relative="1" as="geometry" />
        </mxCell>
        <mxCell id="RDEuVn-KoDseW9TXesCX-2" style="edgeStyle=orthogonalEdgeStyle;rounded=0;orthogonalLoop=1;jettySize=auto;html=1;exitX=0.5;exitY=1;exitDx=0;exitDy=0;entryX=0.5;entryY=0;entryDx=0;entryDy=0;" edge="1" parent="1" source="QgWmPVO1LVFjcxLuKNxT-68" target="RDEuVn-KoDseW9TXesCX-1">
          <mxGeometry relative="1" as="geometry" />
        </mxCell>
        <mxCell id="QgWmPVO1LVFjcxLuKNxT-68" value="Sayılara yaklaş" style="rounded=1;whiteSpace=wrap;html=1;absoluteArcSize=1;arcSize=14;strokeWidth=2;" parent="1" vertex="1">
          <mxGeometry x="451" y="670" width="140" height="60" as="geometry" />
        </mxCell>
        <mxCell id="QgWmPVO1LVFjcxLuKNxT-72" value="&lt;div&gt;Başlangıç noktasına&lt;/div&gt;&lt;div&gt;geri dön&lt;/div&gt;" style="rounded=1;whiteSpace=wrap;html=1;absoluteArcSize=1;arcSize=14;strokeWidth=2;" parent="1" vertex="1">
          <mxGeometry x="-175" y="670" width="140" height="60" as="geometry" />
        </mxCell>
        <mxCell id="QgWmPVO1LVFjcxLuKNxT-73" style="edgeStyle=orthogonalEdgeStyle;rounded=0;orthogonalLoop=1;jettySize=auto;html=1;exitX=0;exitY=0.5;exitDx=0;exitDy=0;entryX=1;entryY=0.5;entryDx=0;entryDy=0;entryPerimeter=0;" parent="1" source="QgWmPVO1LVFjcxLuKNxT-72" target="QgWmPVO1LVFjcxLuKNxT-28" edge="1">
          <mxGeometry relative="1" as="geometry" />
        </mxCell>
        <mxCell id="QgWmPVO1LVFjcxLuKNxT-89" style="edgeStyle=orthogonalEdgeStyle;rounded=0;orthogonalLoop=1;jettySize=auto;html=1;entryX=1;entryY=0.5;entryDx=0;entryDy=0;" parent="1" source="QgWmPVO1LVFjcxLuKNxT-77" target="QgWmPVO1LVFjcxLuKNxT-78" edge="1">
          <mxGeometry relative="1" as="geometry" />
        </mxCell>
        <mxCell id="QgWmPVO1LVFjcxLuKNxT-77" value="&lt;div&gt;Sayıyı görüş açısında&lt;/div&gt;&lt;div&gt;tespit et&lt;/div&gt;" style="rounded=1;whiteSpace=wrap;html=1;absoluteArcSize=1;arcSize=14;strokeWidth=2;" parent="1" vertex="1">
          <mxGeometry x="250" y="670" width="140" height="60" as="geometry" />
        </mxCell>
        <mxCell id="QgWmPVO1LVFjcxLuKNxT-90" style="edgeStyle=orthogonalEdgeStyle;rounded=0;orthogonalLoop=1;jettySize=auto;html=1;entryX=1;entryY=0.5;entryDx=0;entryDy=0;" parent="1" source="QgWmPVO1LVFjcxLuKNxT-78" target="QgWmPVO1LVFjcxLuKNxT-72" edge="1">
          <mxGeometry relative="1" as="geometry" />
        </mxCell>
        <mxCell id="QgWmPVO1LVFjcxLuKNxT-78" value="&lt;div&gt;Sayıya doğru ilerle&lt;/div&gt;&lt;div&gt;ve altındaki kıyıya&lt;/div&gt;&lt;div&gt;yanaş&lt;/div&gt;" style="rounded=1;whiteSpace=wrap;html=1;absoluteArcSize=1;arcSize=14;strokeWidth=2;" parent="1" vertex="1">
          <mxGeometry x="40" y="670" width="140" height="60" as="geometry" />
        </mxCell>
        <mxCell id="QgWmPVO1LVFjcxLuKNxT-79" style="edgeStyle=orthogonalEdgeStyle;rounded=0;orthogonalLoop=1;jettySize=auto;html=1;entryX=0;entryY=0.5;entryDx=0;entryDy=0;entryPerimeter=0;" parent="1" source="QgWmPVO1LVFjcxLuKNxT-57" target="QgWmPVO1LVFjcxLuKNxT-59" edge="1">
          <mxGeometry relative="1" as="geometry" />
        </mxCell>
        <mxCell id="QgWmPVO1LVFjcxLuKNxT-82" style="edgeStyle=orthogonalEdgeStyle;rounded=0;orthogonalLoop=1;jettySize=auto;html=1;entryX=1;entryY=0.5;entryDx=0;entryDy=0;entryPerimeter=0;" parent="1" source="QgWmPVO1LVFjcxLuKNxT-61" target="QgWmPVO1LVFjcxLuKNxT-65" edge="1">
          <mxGeometry relative="1" as="geometry" />
        </mxCell>
        <mxCell id="RDEuVn-KoDseW9TXesCX-3" style="edgeStyle=orthogonalEdgeStyle;rounded=0;orthogonalLoop=1;jettySize=auto;html=1;exitX=0.5;exitY=0;exitDx=0;exitDy=0;exitPerimeter=0;entryX=0.5;entryY=1;entryDx=0;entryDy=0;" edge="1" parent="1" source="QgWmPVO1LVFjcxLuKNxT-84" target="QgWmPVO1LVFjcxLuKNxT-77">
          <mxGeometry relative="1" as="geometry" />
        </mxCell>
        <mxCell id="RDEuVn-KoDseW9TXesCX-7" value="evet" style="edgeLabel;html=1;align=center;verticalAlign=middle;resizable=0;points=[];" vertex="1" connectable="0" parent="RDEuVn-KoDseW9TXesCX-3">
          <mxGeometry x="-0.1714" relative="1" as="geometry">
            <mxPoint x="-1" as="offset" />
          </mxGeometry>
        </mxCell>
        <mxCell id="QgWmPVO1LVFjcxLuKNxT-84" value="Kontrol&lt;div&gt;istasyonu&amp;nbsp;&lt;span style=&quot;background-color: initial;&quot;&gt;sayıyı&lt;/span&gt;&lt;/div&gt;&lt;div&gt;&lt;span style=&quot;background-color: initial;&quot;&gt;gönderdi mi?&lt;/span&gt;&lt;/div&gt;" style="strokeWidth=2;html=1;shape=mxgraph.flowchart.decision;whiteSpace=wrap;" parent="1" vertex="1">
          <mxGeometry x="250" y="770" width="140" height="100" as="geometry" />
        </mxCell>
        <mxCell id="XcTlV2fUrpWRZrm9PTq9-24" style="edgeStyle=orthogonalEdgeStyle;rounded=0;orthogonalLoop=1;jettySize=auto;html=1;exitX=1;exitY=0.5;exitDx=0;exitDy=0;entryX=0;entryY=0.5;entryDx=0;entryDy=0;" parent="1" source="XcTlV2fUrpWRZrm9PTq9-1" target="XcTlV2fUrpWRZrm9PTq9-20" edge="1">
          <mxGeometry relative="1" as="geometry">
            <Array as="points">
              <mxPoint x="670" y="430" />
              <mxPoint x="670" y="610" />
              <mxPoint x="-200" y="610" />
              <mxPoint x="-200" y="430" />
            </Array>
          </mxGeometry>
        </mxCell>
        <mxCell id="XcTlV2fUrpWRZrm9PTq9-1" value="Kameranın görüş açısı kadar belirli yöne dön (ilk denemeyse sağ)" style="rounded=1;whiteSpace=wrap;html=1;absoluteArcSize=1;arcSize=14;strokeWidth=2;" parent="1" vertex="1">
          <mxGeometry x="495" y="400" width="140" height="60" as="geometry" />
        </mxCell>
        <mxCell id="XcTlV2fUrpWRZrm9PTq9-4" style="edgeStyle=orthogonalEdgeStyle;rounded=0;orthogonalLoop=1;jettySize=auto;html=1;entryX=0;entryY=0.5;entryDx=0;entryDy=0;exitX=1;exitY=0.5;exitDx=0;exitDy=0;exitPerimeter=0;" parent="1" source="XcTlV2fUrpWRZrm9PTq9-30" target="XcTlV2fUrpWRZrm9PTq9-1" edge="1">
          <mxGeometry relative="1" as="geometry">
            <mxPoint x="410" y="430" as="sourcePoint" />
          </mxGeometry>
        </mxCell>
        <mxCell id="XcTlV2fUrpWRZrm9PTq9-14" value="hayır" style="edgeLabel;html=1;align=center;verticalAlign=middle;resizable=0;points=[];" parent="XcTlV2fUrpWRZrm9PTq9-4" vertex="1" connectable="0">
          <mxGeometry x="-0.04" relative="1" as="geometry">
            <mxPoint x="-4" y="-8" as="offset" />
          </mxGeometry>
        </mxCell>
        <mxCell id="XcTlV2fUrpWRZrm9PTq9-18" style="edgeStyle=orthogonalEdgeStyle;rounded=0;orthogonalLoop=1;jettySize=auto;html=1;exitX=0.5;exitY=0;exitDx=0;exitDy=0;exitPerimeter=0;entryX=0.5;entryY=0;entryDx=0;entryDy=0;" parent="1" source="XcTlV2fUrpWRZrm9PTq9-3" target="XcTlV2fUrpWRZrm9PTq9-17" edge="1">
          <mxGeometry relative="1" as="geometry" />
        </mxCell>
        <mxCell id="XcTlV2fUrpWRZrm9PTq9-19" value="evet" style="edgeLabel;html=1;align=center;verticalAlign=middle;resizable=0;points=[];" parent="XcTlV2fUrpWRZrm9PTq9-18" vertex="1" connectable="0">
          <mxGeometry x="-0.6906" y="2" relative="1" as="geometry">
            <mxPoint y="-8" as="offset" />
          </mxGeometry>
        </mxCell>
        <mxCell id="XcTlV2fUrpWRZrm9PTq9-3" value="Dubalar&lt;div&gt;tespit&lt;/div&gt;&lt;div&gt;edildi mi?&lt;/div&gt;" style="strokeWidth=2;html=1;shape=mxgraph.flowchart.decision;whiteSpace=wrap;" parent="1" vertex="1">
          <mxGeometry x="20" y="380" width="105" height="100" as="geometry" />
        </mxCell>
        <mxCell id="XcTlV2fUrpWRZrm9PTq9-9" value="" style="edgeStyle=orthogonalEdgeStyle;rounded=0;orthogonalLoop=1;jettySize=auto;html=1;entryX=0;entryY=0.5;entryDx=0;entryDy=0;entryPerimeter=0;" parent="1" source="XcTlV2fUrpWRZrm9PTq9-31" target="XcTlV2fUrpWRZrm9PTq9-30" edge="1">
          <mxGeometry relative="1" as="geometry">
            <mxPoint x="245" y="430" as="sourcePoint" />
            <mxPoint x="310" y="430" as="targetPoint" />
          </mxGeometry>
        </mxCell>
        <mxCell id="XcTlV2fUrpWRZrm9PTq9-34" value="hayır" style="edgeLabel;html=1;align=center;verticalAlign=middle;resizable=0;points=[];" parent="XcTlV2fUrpWRZrm9PTq9-9" vertex="1" connectable="0">
          <mxGeometry x="-0.3905" y="1" relative="1" as="geometry">
            <mxPoint x="-4" y="-7" as="offset" />
          </mxGeometry>
        </mxCell>
        <mxCell id="XcTlV2fUrpWRZrm9PTq9-12" style="edgeStyle=orthogonalEdgeStyle;rounded=0;orthogonalLoop=1;jettySize=auto;html=1;exitX=0.5;exitY=1;exitDx=0;exitDy=0;exitPerimeter=0;entryX=0;entryY=0.5;entryDx=0;entryDy=0;" parent="1" source="XcTlV2fUrpWRZrm9PTq9-30" target="XcTlV2fUrpWRZrm9PTq9-10" edge="1">
          <mxGeometry relative="1" as="geometry">
            <mxPoint x="360" y="480" as="sourcePoint" />
          </mxGeometry>
        </mxCell>
        <mxCell id="XcTlV2fUrpWRZrm9PTq9-15" value="evet" style="edgeLabel;html=1;align=center;verticalAlign=middle;resizable=0;points=[];" parent="XcTlV2fUrpWRZrm9PTq9-12" vertex="1" connectable="0">
          <mxGeometry x="0.1714" y="2" relative="1" as="geometry">
            <mxPoint x="17" y="-8" as="offset" />
          </mxGeometry>
        </mxCell>
        <mxCell id="XcTlV2fUrpWRZrm9PTq9-16" style="edgeStyle=orthogonalEdgeStyle;rounded=0;orthogonalLoop=1;jettySize=auto;html=1;exitX=0.5;exitY=0;exitDx=0;exitDy=0;entryX=0.5;entryY=1;entryDx=0;entryDy=0;" parent="1" source="XcTlV2fUrpWRZrm9PTq9-10" target="XcTlV2fUrpWRZrm9PTq9-1" edge="1">
          <mxGeometry relative="1" as="geometry" />
        </mxCell>
        <mxCell id="XcTlV2fUrpWRZrm9PTq9-10" value="Dönüş sayacını sıfırla, dönülecek yönü değiştir&amp;nbsp; ve 90 derece dön" style="rounded=1;whiteSpace=wrap;html=1;absoluteArcSize=1;arcSize=14;strokeWidth=2;" parent="1" vertex="1">
          <mxGeometry x="495" y="530" width="140" height="60" as="geometry" />
        </mxCell>
        <mxCell id="XcTlV2fUrpWRZrm9PTq9-28" style="edgeStyle=orthogonalEdgeStyle;rounded=0;orthogonalLoop=1;jettySize=auto;html=1;exitX=0.5;exitY=1;exitDx=0;exitDy=0;entryX=0.5;entryY=0;entryDx=0;entryDy=0;" parent="1" source="XcTlV2fUrpWRZrm9PTq9-17" target="QgWmPVO1LVFjcxLuKNxT-57" edge="1">
          <mxGeometry relative="1" as="geometry">
            <mxPoint x="930" y="430" as="targetPoint" />
          </mxGeometry>
        </mxCell>
        <mxCell id="XcTlV2fUrpWRZrm9PTq9-17" value="Dubalara yaklaş" style="rounded=1;whiteSpace=wrap;html=1;absoluteArcSize=1;arcSize=14;strokeWidth=2;" parent="1" vertex="1">
          <mxGeometry x="720" y="400" width="140" height="60" as="geometry" />
        </mxCell>
        <mxCell id="XcTlV2fUrpWRZrm9PTq9-20" value="Görüntüde dubaları ara" style="rounded=1;whiteSpace=wrap;html=1;absoluteArcSize=1;arcSize=14;strokeWidth=2;" parent="1" vertex="1">
          <mxGeometry x="-175" y="400" width="140" height="60" as="geometry" />
        </mxCell>
        <mxCell id="XcTlV2fUrpWRZrm9PTq9-23" style="edgeStyle=orthogonalEdgeStyle;rounded=0;orthogonalLoop=1;jettySize=auto;html=1;entryX=0;entryY=0.5;entryDx=0;entryDy=0;entryPerimeter=0;" parent="1" source="XcTlV2fUrpWRZrm9PTq9-20" target="XcTlV2fUrpWRZrm9PTq9-3" edge="1">
          <mxGeometry relative="1" as="geometry" />
        </mxCell>
        <mxCell id="XcTlV2fUrpWRZrm9PTq9-26" style="edgeStyle=orthogonalEdgeStyle;rounded=0;orthogonalLoop=1;jettySize=auto;html=1;exitX=1;exitY=0.5;exitDx=0;exitDy=0;exitPerimeter=0;entryX=0;entryY=0.5;entryDx=0;entryDy=0;" parent="1" source="XcTlV2fUrpWRZrm9PTq9-25" target="XcTlV2fUrpWRZrm9PTq9-20" edge="1">
          <mxGeometry relative="1" as="geometry" />
        </mxCell>
        <mxCell id="XcTlV2fUrpWRZrm9PTq9-25" value="Başla" style="strokeWidth=2;html=1;shape=mxgraph.flowchart.start_1;whiteSpace=wrap;" parent="1" vertex="1">
          <mxGeometry x="-355" y="400" width="100" height="60" as="geometry" />
        </mxCell>
        <mxCell id="XcTlV2fUrpWRZrm9PTq9-30" value="90 derece dönüldü mü?" style="strokeWidth=2;html=1;shape=mxgraph.flowchart.decision;whiteSpace=wrap;" parent="1" vertex="1">
          <mxGeometry x="340" y="380" width="100" height="100" as="geometry" />
        </mxCell>
        <mxCell id="XcTlV2fUrpWRZrm9PTq9-32" value="" style="edgeStyle=orthogonalEdgeStyle;rounded=0;orthogonalLoop=1;jettySize=auto;html=1;entryX=0;entryY=0.5;entryDx=0;entryDy=0;entryPerimeter=0;" parent="1" source="XcTlV2fUrpWRZrm9PTq9-3" target="XcTlV2fUrpWRZrm9PTq9-31" edge="1">
          <mxGeometry relative="1" as="geometry">
            <mxPoint x="125" y="430" as="sourcePoint" />
            <mxPoint x="310" y="430" as="targetPoint" />
          </mxGeometry>
        </mxCell>
        <mxCell id="XcTlV2fUrpWRZrm9PTq9-33" value="hayır" style="edgeLabel;html=1;align=center;verticalAlign=middle;resizable=0;points=[];" parent="XcTlV2fUrpWRZrm9PTq9-32" vertex="1" connectable="0">
          <mxGeometry x="-0.0857" relative="1" as="geometry">
            <mxPoint x="-1" y="-8" as="offset" />
          </mxGeometry>
        </mxCell>
        <mxCell id="XcTlV2fUrpWRZrm9PTq9-37" style="edgeStyle=orthogonalEdgeStyle;rounded=0;orthogonalLoop=1;jettySize=auto;html=1;exitX=0.5;exitY=1;exitDx=0;exitDy=0;exitPerimeter=0;entryX=0.5;entryY=0;entryDx=0;entryDy=0;" parent="1" source="XcTlV2fUrpWRZrm9PTq9-31" target="XcTlV2fUrpWRZrm9PTq9-36" edge="1">
          <mxGeometry relative="1" as="geometry" />
        </mxCell>
        <mxCell id="XcTlV2fUrpWRZrm9PTq9-39" value="evet" style="edgeLabel;html=1;align=center;verticalAlign=middle;resizable=0;points=[];" parent="XcTlV2fUrpWRZrm9PTq9-37" vertex="1" connectable="0">
          <mxGeometry x="-0.05" y="1" relative="1" as="geometry">
            <mxPoint x="-1" y="-2" as="offset" />
          </mxGeometry>
        </mxCell>
        <mxCell id="XcTlV2fUrpWRZrm9PTq9-31" value="180 derece dönüldü mü?" style="strokeWidth=2;html=1;shape=mxgraph.flowchart.decision;whiteSpace=wrap;" parent="1" vertex="1">
          <mxGeometry x="180" y="380" width="105" height="100" as="geometry" />
        </mxCell>
        <mxCell id="XcTlV2fUrpWRZrm9PTq9-36" value="Dönüş sayacını sıfırla, dönülecek yönü değiştir&amp;nbsp; ve 5 metre ilerle" style="rounded=1;whiteSpace=wrap;html=1;absoluteArcSize=1;arcSize=14;strokeWidth=2;" parent="1" vertex="1">
          <mxGeometry x="162.5" y="530" width="140" height="60" as="geometry" />
        </mxCell>
        <mxCell id="XcTlV2fUrpWRZrm9PTq9-38" style="edgeStyle=orthogonalEdgeStyle;rounded=0;orthogonalLoop=1;jettySize=auto;html=1;exitX=1;exitY=0.5;exitDx=0;exitDy=0;entryX=0;entryY=0.5;entryDx=0;entryDy=0;entryPerimeter=0;" parent="1" source="XcTlV2fUrpWRZrm9PTq9-36" target="XcTlV2fUrpWRZrm9PTq9-30" edge="1">
          <mxGeometry relative="1" as="geometry">
            <Array as="points">
              <mxPoint x="320" y="560" />
              <mxPoint x="320" y="430" />
            </Array>
          </mxGeometry>
        </mxCell>
        <mxCell id="RDEuVn-KoDseW9TXesCX-1" value="Kontrol istasyonundan sayıyı talep et" style="rounded=1;whiteSpace=wrap;html=1;absoluteArcSize=1;arcSize=14;strokeWidth=2;" vertex="1" parent="1">
          <mxGeometry x="451" y="790" width="140" height="60" as="geometry" />
        </mxCell>
        <mxCell id="RDEuVn-KoDseW9TXesCX-4" style="edgeStyle=orthogonalEdgeStyle;rounded=0;orthogonalLoop=1;jettySize=auto;html=1;exitX=0;exitY=0.5;exitDx=0;exitDy=0;entryX=1;entryY=0.5;entryDx=0;entryDy=0;entryPerimeter=0;" edge="1" parent="1" source="RDEuVn-KoDseW9TXesCX-1" target="QgWmPVO1LVFjcxLuKNxT-84">
          <mxGeometry relative="1" as="geometry" />
        </mxCell>
        <mxCell id="RDEuVn-KoDseW9TXesCX-5" style="edgeStyle=orthogonalEdgeStyle;rounded=0;orthogonalLoop=1;jettySize=auto;html=1;exitX=0;exitY=0.5;exitDx=0;exitDy=0;exitPerimeter=0;entryX=0.5;entryY=1;entryDx=0;entryDy=0;entryPerimeter=0;" edge="1" parent="1" source="QgWmPVO1LVFjcxLuKNxT-84" target="QgWmPVO1LVFjcxLuKNxT-84">
          <mxGeometry relative="1" as="geometry" />
        </mxCell>
        <mxCell id="RDEuVn-KoDseW9TXesCX-6" value="hayır" style="edgeLabel;html=1;align=center;verticalAlign=middle;resizable=0;points=[];" vertex="1" connectable="0" parent="RDEuVn-KoDseW9TXesCX-5">
          <mxGeometry x="0.301" relative="1" as="geometry">
            <mxPoint y="-8" as="offset" />
          </mxGeometry>
        </mxCell>
      </root>
    </mxGraphModel>
  </diagram>
</mxfile>
